<svg xmlns="http://www.w3.org/2000/svg" width="1440" height="1024" viewBox="0 0 1440 1024"><defs>
<linearGradient id="bg" x1="0" y1="0" x2="1" y2="1"><stop stop-color="#f8fbff"/><stop offset="1" stop-color="#eef5ff"/></linearGradient>
<linearGradient id="blue" x1="0" x2="1"><stop stop-color="#1677ff"/><stop offset="1" stop-color="#0567f0"/></linearGradient>
<filter id="sh"><feDropShadow dx="0" dy="4" stdDeviation="10" flood-color="#0b3f84" flood-opacity=".08"/></filter>
<style>
.bg{fill:url(#bg)}.card{fill:#fff;stroke:#dfe8f5;stroke-width:1}.h1{font:800 34px Arial;fill:#0b1b45}.h2{font:800 22px Arial;fill:#0b1b45}.h3{font:700 15px Arial;fill:#0b1b45}.body{font:400 14px Arial;fill:#536989}.small{font:400 12px Arial;fill:#7b8daa}.price{font:800 18px Arial;fill:#ff2d20}.blueT{fill:#0b72ff}.line{stroke:#e7eef7;stroke-width:1}.pill{fill:#eef5ff;stroke:#dce8f7}
</style></defs><rect width="1440" height="1024" class="bg"/><rect x="0" y="0" width="1440" height="70" fill="#fff"/><rect x="42" y="15" width="40" height="40" rx="10" fill="url(#blue)"/><text x="96" y="43" class="h3">timlinhkien.com</text><rect x="300" y="14" width="560" height="42" rx="14" class="card"/><text x="324" y="40" class="body">Tìm linh kiện, mã linh kiện hoặc shop...</text><rect x="780" y="18" width="72" height="34" rx="11" fill="url(#blue)"/><text x="816" y="40" text-anchor="middle" style="font:700 13px Arial;fill:#fff">Tìm kiếm</text><text x="920" y="42" class="h3">Danh mục</text><rect x="1040" y="14" width="130" height="42" rx="14" class="card"/><text x="1105" y="40" text-anchor="middle" class="h3">Sản phẩm lưu</text><rect x="1190" y="14" width="112" height="42" rx="14" fill="url(#blue)"/><text x="1246" y="40" text-anchor="middle" style="font:700 13px Arial;fill:#fff">Đăng nhập</text>
<text x="44" y="98" class="small">Trang chủ  ›  Cơ khí  ›  Ốc - Vít - Bulong  ›  Đầu tuýp - Khẩu vặn</text>
<rect x="44" y="120" width="420" height="430" rx="24" class="card"/><rect x="58" y="136" width="392" height="330" rx="18" fill="#d7c3a4"/><rect x="92" y="252" width="318" height="78" rx="14" fill="#b99d7b"/><g fill="#b6c0cb"><rect x="112" y="270" width="28" height="42" rx="7"/><rect x="148" y="270" width="28" height="42" rx="7"/><rect x="184" y="270" width="28" height="42" rx="7"/><rect x="220" y="270" width="28" height="42" rx="7"/><rect x="256" y="270" width="28" height="42" rx="7"/><rect x="292" y="270" width="28" height="42" rx="7"/><rect x="328" y="270" width="28" height="42" rx="7"/><rect x="364" y="270" width="28" height="42" rx="7"/></g><circle cx="76" cy="300" r="22" fill="#fff"/><text x="70" y="307" class="h2">‹</text><circle cx="432" cy="300" r="22" fill="#fff"/><text x="426" y="307" class="h2">›</text>
<rect x="58" y="482" width="64" height="52" rx="10" class="card"/><rect x="66" y="490" width="48" height="36" rx="6" fill="#cdb697"/><rect x="136" y="482" width="64" height="52" rx="10" class="card"/><rect x="144" y="490" width="48" height="36" rx="6" fill="#e2d1b8"/><rect x="214" y="482" width="64" height="52" rx="10" class="card"/><rect x="222" y="490" width="48" height="36" rx="6" fill="#e2d1b8"/><rect x="292" y="482" width="64" height="52" rx="10" class="card"/><rect x="300" y="490" width="48" height="36" rx="6" fill="#e2d1b8"/><rect x="370" y="482" width="64" height="52" rx="10" class="card"/><rect x="378" y="490" width="48" height="36" rx="6" fill="#e2d1b8"/>
<text x="500" y="134" class="small blueT" style="font-weight:700">ỐC - VÍT - BULONG</text><text x="500" y="176" class="h1">BÁN LẺ ĐẦU TUÝP KHẨU VẶN ỐC</text><text x="500" y="208" class="body">chân 1/2 8 - 21mm, chân 1/4 5 - 14mm - TOP</text><rect x="1090" y="128" width="76" height="38" rx="12" class="card"/><text x="1128" y="152" text-anchor="middle" class="h3">♡ Lưu</text><rect x="1178" y="128" width="90" height="38" rx="12" class="card"/><text x="1223" y="152" text-anchor="middle" class="h3">⌘ Chia sẻ</text>
<rect x="500" y="250" width="360" height="230" rx="18" class="card"/><text x="520" y="282" class="h2">Thông số cơ bản</text><line x1="520" y1="304" x2="840" y2="304" class="line"/>
<text x="520" y="336" class="body">Loại sản phẩm</text><text x="660" y="336" class="h3">Đầu tuýp (khẩu vặn ốc)</text><text x="520" y="374" class="body">Kích thước</text><text x="660" y="374" class="h3">Chân 1/2: 8 - 21mm</text><text x="660" y="402" class="h3">Chân 1/4: 5 - 14mm</text><text x="520" y="440" class="body">Thương hiệu</text><text x="660" y="440" class="h3">TOP</text>
<rect x="880" y="250" width="388" height="230" rx="18" class="card"/><text x="900" y="282" class="h2">Phân loại &amp; lựa chọn</text><text x="900" y="320" class="body">Chân</text><rect x="900" y="336" width="138" height="36" rx="10" class="card"/><text x="969" y="358" text-anchor="middle" class="h3">1/4 (5 - 14mm)</text><rect x="1048" y="336" width="138" height="36" rx="10" fill="#edf5ff" stroke="#0b72ff"/><text x="1117" y="358" text-anchor="middle" class="h3 blueT">1/2 (8 - 21mm)</text><text x="900" y="402" class="body">Kích thước</text><rect x="900" y="416" width="68" height="32" rx="8" class="card"/><text x="934" y="437" text-anchor="middle" class="h3">8mm</text><rect x="978" y="416" width="68" height="32" rx="8" class="card"/><text x="1012" y="437" text-anchor="middle" class="h3">9mm</text><rect x="1056" y="416" width="68" height="32" rx="8" class="card"/><text x="1090" y="437" text-anchor="middle" class="h3">10mm</text><rect x="1134" y="416" width="68" height="32" rx="8" class="card"/><text x="1168" y="437" text-anchor="middle" class="h3">11mm</text><rect x="900" y="458" width="68" height="32" rx="8" class="card"/><text x="934" y="479" text-anchor="middle" class="h3">12mm</text><rect x="978" y="458" width="68" height="32" rx="8" class="card"/><text x="1012" y="479" text-anchor="middle" class="h3">13mm</text><rect x="1056" y="458" width="68" height="32" rx="8" class="card"/><text x="1090" y="479" text-anchor="middle" class="h3">14mm</text><rect x="1134" y="458" width="68" height="32" rx="8" class="card"/><text x="1168" y="479" text-anchor="middle" class="h3">15mm</text><rect x="900" y="500" width="68" height="32" rx="8" class="card"/><text x="934" y="521" text-anchor="middle" class="h3">17mm</text><rect x="978" y="500" width="68" height="32" rx="8" class="card"/><text x="1012" y="521" text-anchor="middle" class="h3">19mm</text><rect x="1056" y="500" width="68" height="32" rx="8" class="pill"/><text x="1090" y="521" text-anchor="middle" class="h3 blueT">21mm</text>
<line x1="44" y1="586" x2="1396" y2="586" class="line"/><text x="56" y="620" class="h2 blueT">Nơi bán (4)</text><text x="190" y="620" class="h3">Thông tin sản phẩm</text><text x="360" y="620" class="h3">Đánh giá</text><text x="470" y="620" class="h3">Hỏi đáp</text>
<rect x="44" y="642" width="1352" height="54" rx="14" class="card"/><text x="64" y="675" class="body">Giao đến  Hà Nội</text><rect x="780" y="650" width="180" height="38" rx="10" class="card"/><text x="870" y="674" text-anchor="middle" class="body">Sắp xếp: Giá thấp đến cao</text><rect x="974" y="650" width="150" height="38" rx="10" class="card"/><text x="1049" y="674" text-anchor="middle" class="body">Shop: Tất cả</text>
<rect x="44" y="710" width="1352" height="64" rx="12" class="card"/><circle cx="72" cy="742" r="18" fill="#fff1e8"/><text x="67" y="748" class="h3" style="fill:#ff6b00">S</text><text x="100" y="734" class="h3">Vật Tư Quang Hồng</text><text x="100" y="755" class="small">Hà Nội · 1 - 2 ngày</text><text x="1136" y="748" class="price">25.000đ</text><rect x="1256" y="723" width="120" height="38" rx="10" fill="url(#blue)"/><text x="1316" y="747" text-anchor="middle" style="font:700 12px Arial;fill:#fff">Xem tại shop ↗</text>
<rect x="44" y="784" width="1352" height="64" rx="12" class="card"/><circle cx="72" cy="816" r="18" fill="#fff1e8"/><text x="67" y="822" class="h3" style="fill:#ff6b00">S</text><text x="100" y="808" class="h3">Linh Kiện 24h</text><text x="100" y="829" class="small">Hà Nội · 1 - 3 ngày</text><text x="1136" y="822" class="price">28.000đ</text><rect x="1256" y="797" width="120" height="38" rx="10" fill="url(#blue)"/><text x="1316" y="821" text-anchor="middle" style="font:700 12px Arial;fill:#fff">Xem tại shop ↗</text>
<rect x="44" y="858" width="1352" height="64" rx="12" class="card"/><circle cx="72" cy="890" r="18" fill="#fff1e8"/><text x="67" y="896" class="h3" style="fill:#ff6b00">S</text><text x="100" y="882" class="h3">Điện Tử XYZ</text><text x="100" y="903" class="small">Hà Nội · 1 - 3 ngày</text><text x="1136" y="896" class="price">32.000đ</text><rect x="1256" y="871" width="120" height="38" rx="10" fill="url(#blue)"/><text x="1316" y="895" text-anchor="middle" style="font:700 12px Arial;fill:#fff">Xem tại shop ↗</text>
<text x="44" y="964" class="h2">Sản phẩm tương tự</text></svg>